<svg width="401" height="400" viewBox="0 0 401 400" fill="none" xmlns="http://www.w3.org/2000/svg">
<path d="M320.612 205.244C319.572 224.724 313.726 244.153 303.773 260.943C287.101 289.073 259.17 311.044 223.667 317.706C205.943 320.887 193.052 320.484 178.575 318.263C168.131 315.938 161.556 307.454 168.569 297.371C177.161 285.01 189.34 276.888 201.496 268.765C236.953 245.07 274.616 225.265 312.627 206.073C316.877 203.931 320.911 199.692 320.612 205.244Z" fill="#A43189"/>
<path d="M345.829 159.79C354.759 152.726 363.384 143.651 369.495 133.929L369.505 133.922L369.516 133.915C376.241 123.209 372.422 113.542 360.102 110.612C345.937 107.241 333.928 108.599 319.431 110.612C315.901 111.102 315 111.863 313.793 112.626C311.347 114.17 311.077 118.884 314.599 119.471C321.043 119.874 342.154 118.432 347.217 120.679C361.643 127.084 322.169 148.406 316.982 152.534C313.87 155.006 312.378 154.71 310.628 150.817C296.9 120.297 274.545 98.6558 243.304 86.3682C223.725 78.6704 203.553 76.9081 182.714 79.5419C171.484 80.9606 162.674 84.0449 152.357 88.0643C148.954 89.3897 144.453 91.6475 141.323 93.4464C133.986 97.6545 127.233 102.375 121.087 107.633C115.734 112.213 118.878 120.412 125.892 121.07L255.04 133.195C260.773 133.733 263.604 140.427 260 144.915L187.969 237.018C185.349 240.28 188.694 245.659 192.579 244.105C221.883 232.344 250.371 218.072 278.578 203.889C302.1 192.061 325.235 176.079 345.829 159.79Z" fill="#F0546C"/>
<path fill-rule="evenodd" clip-rule="evenodd" d="M211.673 167.658C216.271 162.733 212.222 154.751 205.531 155.552L88.5438 169.563C85.0053 169.987 82.0607 172.537 81.3465 176.028C76.8475 198.02 78.6423 220.167 87.1071 242.335C90.277 250.64 90.4756 250.879 81.9187 251.931C80.8029 252.068 79.6849 252.22 78.5651 252.372C72.1137 253.246 65.6018 254.129 59.1107 252.286C43.4203 247.817 67.553 232.954 69.3751 226.603C70.7205 221.913 64.346 220.156 60.3605 222.971C47.5893 231.99 35.4307 242.515 27.8912 256.433C26.2801 259.655 26.4794 263.685 27.0855 265.863C31.5498 281.902 66.1127 278.991 77.4998 276.946C92.4207 274.267 103.194 273.294 117.691 268.865C121.645 267.656 121.718 267.255 127.758 261.031C158.363 232.623 186.37 193.89 211.673 167.658Z" fill="#FFB471"/>
</svg>
