<svg width="742" height="150" viewBox="0 0 742 150" fill="none" xmlns="http://www.w3.org/2000/svg">
<g clip-path="url(#clip0_131_28503)">
<g clip-path="url(#clip1_131_28503)">
<g clip-path="url(#clip2_131_28503)">
<path d="M182.215 78.2263C181.573 90.2412 177.968 102.224 171.829 112.579C161.547 129.929 144.32 143.479 122.423 147.589C111.492 149.551 103.541 149.302 94.6119 147.932C88.1707 146.498 84.1155 141.266 88.4404 135.047C93.7399 127.423 101.251 122.414 108.748 117.404C130.617 102.79 153.846 90.5746 177.29 78.738C179.911 77.4166 182.399 74.8023 182.215 78.2263Z" fill="#A43189"/>
<path d="M197.774 50.202C203.282 45.8453 208.602 40.2484 212.37 34.2523L212.377 34.2478L212.383 34.2432C216.531 27.6401 214.176 21.6783 206.577 19.8711C197.841 17.792 190.434 18.6293 181.493 19.8711C179.316 20.1735 178.761 20.6426 178.016 21.1129C176.507 22.0654 176.341 24.9732 178.513 25.3352C182.488 25.5836 195.508 24.6942 198.631 26.0802C207.528 30.0302 183.182 43.1811 179.982 45.7268C178.063 47.2517 177.143 47.0686 176.064 44.6679C167.597 25.8442 153.809 12.4969 134.541 4.91845C122.466 0.170728 110.025 -0.91617 97.1717 0.708205C90.2456 1.58321 84.812 3.48551 78.4486 5.96449C76.3501 6.78198 73.574 8.17452 71.6434 9.28395C67.1181 11.8794 62.9533 14.7905 59.1626 18.0335C55.8609 20.8583 57.8002 25.915 62.1264 26.3212L141.78 33.7993C145.315 34.1312 147.061 38.2599 144.839 41.0277L100.413 97.8334C98.7968 99.8453 100.86 103.163 103.256 102.204C121.329 94.9505 138.9 86.1479 156.297 77.4006C170.804 70.1058 185.073 60.2485 197.774 50.202Z" fill="#F0546C"/>
<path fill-rule="evenodd" clip-rule="evenodd" d="M115.031 55.0559C117.866 52.0179 115.369 47.0951 111.242 47.5892L39.0896 56.2305C36.9071 56.4919 35.091 58.0648 34.6505 60.2181C31.8758 73.7816 32.9827 87.4413 38.2035 101.114C40.1585 106.236 40.281 106.383 35.0034 107.032C34.3153 107.117 33.6257 107.21 32.9351 107.304C28.9561 107.843 24.9399 108.388 20.9364 107.251C11.2592 104.494 26.1433 95.3274 27.267 91.4105C28.0969 88.518 24.1653 87.4346 21.7072 89.1705C13.8305 94.7331 6.33157 101.225 1.68151 109.809C0.687828 111.796 0.810736 114.281 1.1846 115.625C3.93795 125.517 25.255 123.721 32.278 122.46C41.4807 120.808 48.1253 120.208 57.0664 117.476C59.505 116.73 59.5501 116.483 63.2755 112.644C82.1512 95.1232 99.4249 71.2348 115.031 55.0559Z" fill="#FFB471"/>
</g>
</g>
</g>
<g clip-path="url(#clip3_131_28503)">
<g clip-path="url(#clip4_131_28503)">
<g clip-path="url(#clip5_131_28503)">
<path d="M276.271 0.776489H282.769L224.856 146.332H217.969L276.271 0.776489Z" fill="white" fill-opacity="0.3"/>
</g>
</g>
</g>
<path d="M620.977 113.482C602.595 113.482 587.042 98.9873 587.042 77.8928C587.042 56.7979 602.595 42.3034 620.977 42.3034C627.661 42.3034 634.087 44.2448 638.844 48.1272C638.586 42.8211 638.458 37.3857 638.458 31.6915V12.1498H658.766V112.188H640.771L640.643 105.976C636.017 110.893 628.559 113.482 620.977 113.482ZM607.353 77.8928C607.353 88.2459 614.293 94.846 623.677 94.846C632.93 94.846 639.742 88.2459 639.742 77.8928C639.742 67.5394 632.93 60.9393 623.677 60.9393C614.293 60.9393 607.353 67.5394 607.353 77.8928Z" fill="#F1F0F2"/>
<path d="M707.678 113.482C700.092 113.482 692.638 110.893 688.009 105.976L687.881 112.188H669.886V12.1498H690.194V30.5267C690.194 36.221 690.066 42.4328 689.81 48.1272C694.437 44.2448 700.993 42.3034 707.678 42.3034C726.056 42.3034 741.61 56.7979 741.61 77.8928C741.61 98.9873 726.056 113.482 707.678 113.482ZM688.909 77.8928C688.909 88.2459 695.722 94.846 704.978 94.846C714.362 94.846 721.302 88.2459 721.302 77.8928C721.302 67.5394 714.362 60.9393 704.978 60.9393C695.722 60.9393 688.909 67.5394 688.909 77.8928Z" fill="#F1F0F2"/>
<path d="M316.9 113.044C313.591 113.044 308.755 112.79 303.792 112.281V101.971C309.009 102.607 313.464 102.862 316.391 102.862C325.045 102.862 329.117 100.062 329.117 94.3345C329.117 90.1343 326.699 87.0797 320.463 83.0067L316.009 80.0794C307.228 74.352 303.282 68.8789 303.282 61.6243C303.282 50.9329 311.555 44.3143 325.299 44.3143C328.227 44.3143 331.917 44.5692 335.608 45.0782V54.4968C331.79 54.1147 328.863 53.9874 326.954 53.9874C318.936 53.9874 314.736 56.6602 314.736 61.4968C314.736 65.0607 317.282 67.8608 323.518 71.9337L327.972 74.8611C337.135 80.843 341.08 86.4434 341.08 94.2073C341.08 106.044 332.172 113.044 316.9 113.044Z" fill="#F1F0F2"/>
<path d="M352.89 137.481V45.0782H363.326L363.453 55.3876C368.162 48.1328 377.326 43.8053 387.38 43.8053C405.706 43.8053 420.723 58.1877 420.723 78.6792C420.723 99.1711 405.706 113.553 387.38 113.553C377.962 113.553 369.181 109.608 364.217 103.116C364.472 108.08 364.599 113.172 364.599 118.008V137.481H352.89ZM363.581 78.6792C363.581 94.08 373.635 102.607 385.852 102.607C399.215 102.607 408.887 92.6798 408.887 78.6792C408.887 64.5516 399.215 54.624 385.852 54.624C373.635 54.624 363.581 63.2787 363.581 78.6792Z" fill="#F1F0F2"/>
<path d="M433.243 112.281V45.0782H444.951V112.281H433.243ZM433.243 32.9868V22.6596L444.951 17.7399V32.9868H433.243Z" fill="#F1F0F2"/>
<path d="M491.944 113.172C471.835 113.172 457.454 99.0438 457.454 78.8065C457.454 58.4422 471.835 44.3143 491.944 44.3143C495.125 44.3143 498.816 44.5692 502.761 45.2055V56.0239C498.816 55.3876 495.507 55.1331 493.216 55.1331C478.58 55.1331 469.163 64.9334 469.163 78.8065C469.163 92.5526 478.58 102.226 493.216 102.226C495.507 102.226 498.816 101.971 502.761 101.462V112.281C498.816 112.917 495.125 113.172 491.944 113.172Z" fill="#F1F0F2"/>
<path d="M545.759 113.553C525.141 113.553 511.27 98.662 511.27 78.934C511.27 58.824 525.523 43.8053 544.995 43.8053C562.049 43.8053 577.321 55.3876 576.939 80.2066H522.214C522.851 93.4437 532.014 103.244 545.886 103.244C555.685 103.244 563.703 98.4075 568.666 90.2615L576.811 96.2437C570.957 105.407 560.776 113.553 545.759 113.553ZM522.851 71.4247H565.485C563.321 59.4606 554.922 53.7329 544.868 53.7329C533.541 53.7329 525.269 61.2422 522.851 71.4247Z" fill="#F1F0F2"/>
<defs>
<clipPath id="clip0_131_28503">
<rect width="214.632" height="150" fill="white" transform="translate(0.340698)"/>
</clipPath>
<clipPath id="clip1_131_28503">
<rect width="214.632" height="150" fill="white" transform="translate(0.34137 0.00140381)"/>
</clipPath>
<clipPath id="clip2_131_28503">
<rect width="214.598" height="150" fill="white" transform="translate(0.355835 0.00170898)"/>
</clipPath>
<clipPath id="clip3_131_28503">
<rect width="65.3515" height="148.532" fill="white" transform="translate(217.968 0.734131)"/>
</clipPath>
<clipPath id="clip4_131_28503">
<rect width="65.3515" height="148.532" fill="white" transform="translate(217.969 0.735535)"/>
</clipPath>
<clipPath id="clip5_131_28503">
<rect width="65.3515" height="148.526" fill="white" transform="translate(217.969 0.736938)"/>
</clipPath>
</defs>
</svg>
